# xmcd CD database file
#
# Track frame offsets:
#	182
#	22630
#	50197
#	71167
#	89400
#	115887
#	147735
#	157895
#	174142
#	198065
#	207827
#	229755
#
# Disc length: 3231 seconds
#
# Revision: 0
# Processed by: cddbd v1.5.2PL0 Copyright (c) Steve Scherf et al.
# Submitted via: CDex 1.70beta2
#
DISCID=9e0c9d0c
DTITLE=Denis Fournier - D. FOURNIER
DYEAR=0
DGENRE=Jazz
TTITLE0=Le désert de...
TTITLE1=Haram
TTITLE2=Saudade
TTITLE3=Osangala
TTITLE4=La gitane
TTITLE5=ETOILE FILANTE
TTITLE6=Agia
TTITLE7=L'indien
TTITLE8=Belleville
TTITLE9=Karam
TTITLE10=Maj
TTITLE11=Halia
EXTD=YEAR: 0
EXTT0=
EXTT1=
EXTT2=
EXTT3=
EXTT4=
EXTT5=
EXTT6=
EXTT7=
EXTT8=
EXTT9=
EXTT10=
EXTT11=
PLAYORDER=
